<?xml version="1.0" encoding="UTF-8"?>
<svg id="Layer_1" xmlns="http://www.w3.org/2000/svg" version="1.1" viewBox="0 0 31.9 32">
  <!-- Generator: Adobe Illustrator 29.8.0, SVG Export Plug-In . SVG Version: 2.1.1 Build 160)  -->
  <defs>
    <style>
      .st0 {
        fill: #e561a3;
      }

      .st1 {
        fill: #d0e8fc;
        stroke: #000;
        stroke-miterlimit: 10;
        stroke-width: .1px;
      }
    </style>
  </defs>
  <path class="st1" d="M5.4,28.1c-1.1.9-2.2,1.8-3.3,2.7,0,0,0,0,0,.1.3.1.5.1.8.1,4.3,0,8.6,0,13,0h0c1.7,0,3.4,0,5.2,0,2.6,0,5.2,0,7.8,0,.3,0,.5,0,.8-.2,0,0,0,0,0-.1-.5-.4-.9-.7-1.4-1.1-1.9-1.6-3.9-3.2-5.8-4.8-1.6-1.3-3.2-2.6-4.8-3.9-.5-.4-.9-.8-1.4-1.2-.3-.2-.6-.2-.9,0-.3.2-.6.5-.9.7-1.9,1.5-3.7,3.1-5.6,4.6-1.2,1-2.4,2-3.6,3Z"/>
  <path class="st1" d="M23.5,18.4c-1.2,1-2.5,2-3.7,3,0,0,0,0,0,.2.7.6,1.4,1.1,2.1,1.7,1.6,1.3,3.2,2.6,4.7,3.9,1.2,1,2.5,2,3.7,3.1,0,0,.1,0,.2,0,.2-.3.3-.7.3-1.1,0-2.6,0-5.3,0-7.9h0c0-2.7,0-5.4,0-8,0-.2,0-.3,0-.5,0,0,0,0-.1,0-.8.7-1.6,1.3-2.4,2-1.5,1.3-3.1,2.5-4.6,3.8Z"/>
  <path class="st1" d="M1.1,21.2c0,1.5,0,3,0,4.5,0,1.2,0,2.4,0,3.6,0,.3,0,.6.3.9,0,0,0,0,.1,0,.2-.1.3-.3.5-.4,1.9-1.6,3.8-3.1,5.6-4.7,1.5-1.2,3-2.5,4.5-3.7,0,0,0,0,0-.1-.7-.6-1.4-1.1-2.1-1.7-1.5-1.2-3-2.4-4.5-3.6-1.1-.9-2.2-1.8-3.3-2.6-.3-.3-.7-.6-1-.8,0,0,0,0-.1,0,0,.1,0,.3,0,.4,0,2.7,0,5.4,0,8.1h0Z"/>
  <path class="st0" d="M16.1,18.2c1.8-1.8,3.6-3.6,5.4-5.4.7-.7,1-1.5,1.1-2.5,0-.7-.1-1.3-.4-1.8-.7-1.4-1.9-2-3.5-2-1.1,0-2,.5-2.7,1.5,0,0,0,.1-.2,0-.1-.2-.3-.4-.4-.6-1.1-1-2.4-1.2-3.7-.7-2.5,1-3.2,4.1-1.4,6,1.8,1.8,3.6,3.6,5.4,5.4.2.2.2.2.3,0Z"/>
  <path class="st1" d="M1.8,11.9c.6.5,1.1.9,1.7,1.4.7.5,1.3,1.1,2,1.6,0,0,0,0,0,0,0,0,0,0,0,0,0-2.9,0-5.8,0-8.6,0-.5,0-1,0-1.4,0-.2.1-.4.4-.4,0,0,0,0,.1,0,3.3,0,6.5,0,9.8,0h0c2.7,0,5.4,0,8.1,0,.6,0,1.2,0,1.8,0,.2,0,.3,0,.4.2,0,0,0,.1,0,.2,0,3.3,0,6.7,0,10,0,0,0,0,0,.1,0,0,0,0,0,0,.8-.7,1.6-1.3,2.4-2,.4-.4.9-.7,1.3-1.1,0,0,0,0,0-.1-.1,0-.3-.2-.4-.3-.9-.7-1.8-1.4-2.7-2.2,0,0-.1-.1-.1-.2,0-.8,0-1.6,0-2.4,0-.6,0-1.2,0-1.9,0-.3-.1-.5-.3-.6-.2-.2-.4-.3-.7-.3-2,0-3.9,0-5.9,0,0,0-.1,0-.2,0-.3-.2-.6-.5-.8-.7-.8-.7-1.7-1.4-2.5-2-.3-.2-.6-.2-.9,0-1.1.8-2.1,1.7-3.2,2.5-.2.2-.4.2-.6.2-1.9,0-3.8,0-5.6,0-.2,0-.4,0-.6.1-.3.2-.5.5-.5.9,0,1.4,0,2.8,0,4.1,0,.1,0,.2-.2.3-1,.8-2,1.6-3,2.4,0,0,0,0,0,.1Z"/>
</svg>